<?xml version="1.0" encoding="UTF-8" standalone="no"?>
<!DOCTYPE svg PUBLIC "-//W3C//DTD SVG 1.1//EN"
 "http://www.w3.org/Graphics/SVG/1.1/DTD/svg11.dtd">
<!-- Generated by graphviz version 5.0.0 (20220707.1540)
 -->
<!-- Title: dependencies Pages: 1 -->
<svg width="3002pt" height="247pt"
 viewBox="0.00 0.00 3002.00 246.80" xmlns="http://www.w3.org/2000/svg" xmlns:xlink="http://www.w3.org/1999/xlink">
<g id="graph0" class="graph" transform="scale(1 1) rotate(0) translate(4 242.8)">
<title>dependencies</title>
<polygon fill="white" stroke="transparent" points="-4,4 -4,-242.8 2998,-242.8 2998,4 -4,4"/>
<text text-anchor="middle" x="1497" y="-8.2" font-family="sans-serif" font-size="14.00">dependencies</text>
<g id="clust1" class="cluster">
<title>cluster_AppModule</title>
<polygon fill="none" stroke="black" stroke-dasharray="1,5" points="8,-32.8 8,-230.8 2986,-230.8 2986,-32.8 8,-32.8"/>
</g>
<g id="clust21" class="cluster">
<title>cluster_AppModule_providers</title>
<polygon fill="none" stroke="black" points="2798,-40.8 2798,-92.8 2978,-92.8 2978,-40.8 2798,-40.8"/>
</g>
<g id="clust18" class="cluster">
<title>cluster_AppModule_imports</title>
<polygon fill="none" stroke="black" points="2646,-40.8 2646,-92.8 2790,-92.8 2790,-40.8 2646,-40.8"/>
</g>
<g id="clust20" class="cluster">
<title>cluster_AppModule_bootstrap</title>
<polygon fill="none" stroke="black" points="1289,-170.8 1289,-222.8 1413,-222.8 1413,-170.8 1289,-170.8"/>
</g>
<g id="clust2" class="cluster">
<title>cluster_AppModule_declarations</title>
<polygon fill="none" stroke="black" points="16,-40.8 16,-92.8 2638,-92.8 2638,-40.8 16,-40.8"/>
</g>
<!-- AgregarConocimientoComponent -->
<g id="node1" class="node">
<title>AgregarConocimientoComponent</title>
<polygon fill="#ffffb3" stroke="black" points="2630.02,-84.8 2423.98,-84.8 2423.98,-48.8 2630.02,-48.8 2630.02,-84.8"/>
<text text-anchor="middle" x="2527" y="-62.6" font-family="Times,serif" font-size="14.00">AgregarConocimientoComponent</text>
</g>
<!-- AppModule -->
<g id="node16" class="node">
<title>AppModule</title>
<polygon fill="#8dd3c7" stroke="black" points="1392.66,-149.8 1389.66,-153.8 1368.66,-153.8 1365.66,-149.8 1309.34,-149.8 1309.34,-113.8 1392.66,-113.8 1392.66,-149.8"/>
<text text-anchor="middle" x="1351" y="-127.6" font-family="Times,serif" font-size="14.00">AppModule</text>
</g>
<!-- AgregarConocimientoComponent&#45;&gt;AppModule -->
<g id="edge1" class="edge">
<title>AgregarConocimientoComponent&#45;&gt;AppModule</title>
<path fill="none" stroke="black" d="M2527,-85.08C2527,-106.12 2527,-137.8 2527,-137.8 2527,-137.8 1402.85,-137.8 1402.85,-137.8"/>
<polygon fill="black" stroke="black" points="1402.85,-134.3 1392.85,-137.8 1402.85,-141.3 1402.85,-134.3"/>
</g>
<!-- AgregarEducacionComponent -->
<g id="node2" class="node">
<title>AgregarEducacionComponent</title>
<polygon fill="#ffffb3" stroke="black" points="2406.28,-84.8 2219.72,-84.8 2219.72,-48.8 2406.28,-48.8 2406.28,-84.8"/>
<text text-anchor="middle" x="2313" y="-62.6" font-family="Times,serif" font-size="14.00">AgregarEducacionComponent</text>
</g>
<!-- AgregarEducacionComponent&#45;&gt;AppModule -->
<g id="edge2" class="edge">
<title>AgregarEducacionComponent&#45;&gt;AppModule</title>
<path fill="none" stroke="black" d="M2313,-85.11C2313,-104.95 2313,-133.8 2313,-133.8 2313,-133.8 1402.95,-133.8 1402.95,-133.8"/>
<polygon fill="black" stroke="black" points="1402.95,-130.3 1392.95,-133.8 1402.95,-137.3 1402.95,-130.3"/>
</g>
<!-- AgregarExperienciaComponent -->
<g id="node3" class="node">
<title>AgregarExperienciaComponent</title>
<polygon fill="#ffffb3" stroke="black" points="2202.04,-84.8 2007.96,-84.8 2007.96,-48.8 2202.04,-48.8 2202.04,-84.8"/>
<text text-anchor="middle" x="2105" y="-62.6" font-family="Times,serif" font-size="14.00">AgregarExperienciaComponent</text>
</g>
<!-- AgregarExperienciaComponent&#45;&gt;AppModule -->
<g id="edge3" class="edge">
<title>AgregarExperienciaComponent&#45;&gt;AppModule</title>
<path fill="none" stroke="black" d="M2105,-85.02C2105,-103.63 2105,-129.8 2105,-129.8 2105,-129.8 1402.88,-129.8 1402.88,-129.8"/>
<polygon fill="black" stroke="black" points="1402.88,-126.3 1392.88,-129.8 1402.88,-133.3 1402.88,-126.3"/>
</g>
<!-- AgregarHabilidadBlandaComponent -->
<g id="node4" class="node">
<title>AgregarHabilidadBlandaComponent</title>
<polygon fill="#ffffb3" stroke="black" points="1990.06,-84.8 1767.94,-84.8 1767.94,-48.8 1990.06,-48.8 1990.06,-84.8"/>
<text text-anchor="middle" x="1879" y="-62.6" font-family="Times,serif" font-size="14.00">AgregarHabilidadBlandaComponent</text>
</g>
<!-- AgregarHabilidadBlandaComponent&#45;&gt;AppModule -->
<g id="edge4" class="edge">
<title>AgregarHabilidadBlandaComponent&#45;&gt;AppModule</title>
<path fill="none" stroke="black" d="M1879,-84.82C1879,-102.17 1879,-125.8 1879,-125.8 1879,-125.8 1402.87,-125.8 1402.87,-125.8"/>
<polygon fill="black" stroke="black" points="1402.87,-122.3 1392.87,-125.8 1402.87,-129.3 1402.87,-122.3"/>
</g>
<!-- AgregarProyectoComponent -->
<g id="node5" class="node">
<title>AgregarProyectoComponent</title>
<polygon fill="#ffffb3" stroke="black" points="1749.46,-84.8 1572.54,-84.8 1572.54,-48.8 1749.46,-48.8 1749.46,-84.8"/>
<text text-anchor="middle" x="1661" y="-62.6" font-family="Times,serif" font-size="14.00">AgregarProyectoComponent</text>
</g>
<!-- AgregarProyectoComponent&#45;&gt;AppModule -->
<g id="edge5" class="edge">
<title>AgregarProyectoComponent&#45;&gt;AppModule</title>
<path fill="none" stroke="black" d="M1661,-84.81C1661,-100.85 1661,-121.8 1661,-121.8 1661,-121.8 1402.81,-121.8 1402.81,-121.8"/>
<polygon fill="black" stroke="black" points="1402.81,-118.3 1392.81,-121.8 1402.81,-125.3 1402.81,-118.3"/>
</g>
<!-- AppComponent -->
<g id="node6" class="node">
<title>AppComponent</title>
<polygon fill="#ffffb3" stroke="black" points="1554.94,-84.8 1449.06,-84.8 1449.06,-48.8 1554.94,-48.8 1554.94,-84.8"/>
<text text-anchor="middle" x="1502" y="-62.6" font-family="Times,serif" font-size="14.00">AppComponent</text>
</g>
<!-- AppComponent&#45;&gt;AppModule -->
<g id="edge6" class="edge">
<title>AppComponent&#45;&gt;AppModule</title>
<path fill="none" stroke="black" d="M1502,-84.92C1502,-99.58 1502,-117.8 1502,-117.8 1502,-117.8 1403.06,-117.8 1403.06,-117.8"/>
<polygon fill="black" stroke="black" points="1403.06,-114.3 1393.06,-117.8 1403.06,-121.3 1403.06,-114.3"/>
</g>
<!-- ConocimientoComponent -->
<g id="node7" class="node">
<title>ConocimientoComponent</title>
<polygon fill="#ffffb3" stroke="black" points="1431.16,-84.8 1270.84,-84.8 1270.84,-48.8 1431.16,-48.8 1431.16,-84.8"/>
<text text-anchor="middle" x="1351" y="-62.6" font-family="Times,serif" font-size="14.00">ConocimientoComponent</text>
</g>
<!-- ConocimientoComponent&#45;&gt;AppModule -->
<g id="edge7" class="edge">
<title>ConocimientoComponent&#45;&gt;AppModule</title>
<path fill="none" stroke="black" d="M1351,-84.91C1351,-84.91 1351,-103.79 1351,-103.79"/>
<polygon fill="black" stroke="black" points="1347.5,-103.79 1351,-113.79 1354.5,-103.79 1347.5,-103.79"/>
</g>
<!-- EditInicioComponent -->
<g id="node8" class="node">
<title>EditInicioComponent</title>
<polygon fill="#ffffb3" stroke="black" points="1252.82,-84.8 1115.18,-84.8 1115.18,-48.8 1252.82,-48.8 1252.82,-84.8"/>
<text text-anchor="middle" x="1184" y="-62.6" font-family="Times,serif" font-size="14.00">EditInicioComponent</text>
</g>
<!-- EditInicioComponent&#45;&gt;AppModule -->
<g id="edge8" class="edge">
<title>EditInicioComponent&#45;&gt;AppModule</title>
<path fill="none" stroke="black" d="M1184,-84.92C1184,-99.58 1184,-117.8 1184,-117.8 1184,-117.8 1299.29,-117.8 1299.29,-117.8"/>
<polygon fill="black" stroke="black" points="1299.29,-121.3 1309.29,-117.8 1299.29,-114.3 1299.29,-121.3"/>
</g>
<!-- EducacionComponent -->
<g id="node9" class="node">
<title>EducacionComponent</title>
<polygon fill="#ffffb3" stroke="black" points="1097.41,-84.8 956.59,-84.8 956.59,-48.8 1097.41,-48.8 1097.41,-84.8"/>
<text text-anchor="middle" x="1027" y="-62.6" font-family="Times,serif" font-size="14.00">EducacionComponent</text>
</g>
<!-- EducacionComponent&#45;&gt;AppModule -->
<g id="edge9" class="edge">
<title>EducacionComponent&#45;&gt;AppModule</title>
<path fill="none" stroke="black" d="M1027,-84.81C1027,-100.85 1027,-121.8 1027,-121.8 1027,-121.8 1299.31,-121.8 1299.31,-121.8"/>
<polygon fill="black" stroke="black" points="1299.31,-125.3 1309.31,-121.8 1299.31,-118.3 1299.31,-125.3"/>
</g>
<!-- ExperienciaComponent -->
<g id="node10" class="node">
<title>ExperienciaComponent</title>
<polygon fill="#ffffb3" stroke="black" points="939.18,-84.8 790.82,-84.8 790.82,-48.8 939.18,-48.8 939.18,-84.8"/>
<text text-anchor="middle" x="865" y="-62.6" font-family="Times,serif" font-size="14.00">ExperienciaComponent</text>
</g>
<!-- ExperienciaComponent&#45;&gt;AppModule -->
<g id="edge10" class="edge">
<title>ExperienciaComponent&#45;&gt;AppModule</title>
<path fill="none" stroke="black" d="M865,-84.82C865,-102.17 865,-125.8 865,-125.8 865,-125.8 1299.14,-125.8 1299.14,-125.8"/>
<polygon fill="black" stroke="black" points="1299.14,-129.3 1309.14,-125.8 1299.14,-122.3 1299.14,-129.3"/>
</g>
<!-- HabilidadesBlandasComponent -->
<g id="node11" class="node">
<title>HabilidadesBlandasComponent</title>
<polygon fill="#ffffb3" stroke="black" points="772.8,-84.8 579.2,-84.8 579.2,-48.8 772.8,-48.8 772.8,-84.8"/>
<text text-anchor="middle" x="676" y="-62.6" font-family="Times,serif" font-size="14.00">HabilidadesBlandasComponent</text>
</g>
<!-- HabilidadesBlandasComponent&#45;&gt;AppModule -->
<g id="edge11" class="edge">
<title>HabilidadesBlandasComponent&#45;&gt;AppModule</title>
<path fill="none" stroke="black" d="M676,-85.02C676,-103.63 676,-129.8 676,-129.8 676,-129.8 1299.29,-129.8 1299.29,-129.8"/>
<polygon fill="black" stroke="black" points="1299.29,-133.3 1309.29,-129.8 1299.29,-126.3 1299.29,-133.3"/>
</g>
<!-- InicioComponent -->
<g id="node12" class="node">
<title>InicioComponent</title>
<polygon fill="#ffffb3" stroke="black" points="560.99,-84.8 447.01,-84.8 447.01,-48.8 560.99,-48.8 560.99,-84.8"/>
<text text-anchor="middle" x="504" y="-62.6" font-family="Times,serif" font-size="14.00">InicioComponent</text>
</g>
<!-- InicioComponent&#45;&gt;AppModule -->
<g id="edge12" class="edge">
<title>InicioComponent&#45;&gt;AppModule</title>
<path fill="none" stroke="black" d="M504,-85.11C504,-104.95 504,-133.8 504,-133.8 504,-133.8 1299.29,-133.8 1299.29,-133.8"/>
<polygon fill="black" stroke="black" points="1299.29,-137.3 1309.29,-133.8 1299.29,-130.3 1299.29,-137.3"/>
</g>
<!-- LoginComponent -->
<g id="node13" class="node">
<title>LoginComponent</title>
<polygon fill="#ffffb3" stroke="black" points="429.27,-84.8 314.73,-84.8 314.73,-48.8 429.27,-48.8 429.27,-84.8"/>
<text text-anchor="middle" x="372" y="-62.6" font-family="Times,serif" font-size="14.00">LoginComponent</text>
</g>
<!-- LoginComponent&#45;&gt;AppModule -->
<g id="edge13" class="edge">
<title>LoginComponent&#45;&gt;AppModule</title>
<path fill="none" stroke="black" d="M372,-85.08C372,-106.12 372,-137.8 372,-137.8 372,-137.8 1299.25,-137.8 1299.25,-137.8"/>
<polygon fill="black" stroke="black" points="1299.25,-141.3 1309.25,-137.8 1299.25,-134.3 1299.25,-141.3"/>
</g>
<!-- NavbarComponent -->
<g id="node14" class="node">
<title>NavbarComponent</title>
<polygon fill="#ffffb3" stroke="black" points="296.03,-84.8 173.97,-84.8 173.97,-48.8 296.03,-48.8 296.03,-84.8"/>
<text text-anchor="middle" x="235" y="-62.6" font-family="Times,serif" font-size="14.00">NavbarComponent</text>
</g>
<!-- NavbarComponent&#45;&gt;AppModule -->
<g id="edge14" class="edge">
<title>NavbarComponent&#45;&gt;AppModule</title>
<path fill="none" stroke="black" d="M235,-84.96C235,-107.15 235,-141.8 235,-141.8 235,-141.8 1299.29,-141.8 1299.29,-141.8"/>
<polygon fill="black" stroke="black" points="1299.29,-145.3 1309.29,-141.8 1299.29,-138.3 1299.29,-145.3"/>
</g>
<!-- ProyectoComponent -->
<g id="node15" class="node">
<title>ProyectoComponent</title>
<polygon fill="#ffffb3" stroke="black" points="155.6,-84.8 24.4,-84.8 24.4,-48.8 155.6,-48.8 155.6,-84.8"/>
<text text-anchor="middle" x="90" y="-62.6" font-family="Times,serif" font-size="14.00">ProyectoComponent</text>
</g>
<!-- ProyectoComponent&#45;&gt;AppModule -->
<g id="edge15" class="edge">
<title>ProyectoComponent&#45;&gt;AppModule</title>
<path fill="none" stroke="black" d="M90,-85.12C90,-108.46 90,-145.8 90,-145.8 90,-145.8 1299.04,-145.8 1299.04,-145.8"/>
<polygon fill="black" stroke="black" points="1299.04,-149.3 1309.04,-145.8 1299.04,-142.3 1299.04,-149.3"/>
</g>
<!-- AppComponent  -->
<g id="node18" class="node">
<title>AppComponent </title>
<polygon fill="#80b1d3" stroke="black" points="1405.44,-214.8 1296.56,-214.8 1296.56,-178.8 1405.44,-178.8 1405.44,-214.8"/>
<text text-anchor="middle" x="1351" y="-192.6" font-family="Times,serif" font-size="14.00">AppComponent </text>
</g>
<!-- AppModule&#45;&gt;AppComponent  -->
<g id="edge17" class="edge">
<title>AppModule&#45;&gt;AppComponent </title>
<path fill="none" stroke="black" stroke-dasharray="1,5" d="M1351,-149.91C1351,-149.91 1351,-168.79 1351,-168.79"/>
<polygon fill="black" stroke="black" points="1347.5,-168.79 1351,-178.79 1354.5,-168.79 1347.5,-168.79"/>
</g>
<!-- AppRoutingModule -->
<g id="node17" class="node">
<title>AppRoutingModule</title>
<polygon fill="#8dd3c7" stroke="black" points="2782.28,-84.8 2779.28,-88.8 2758.28,-88.8 2755.28,-84.8 2653.72,-84.8 2653.72,-48.8 2782.28,-48.8 2782.28,-84.8"/>
<text text-anchor="middle" x="2718" y="-62.6" font-family="Times,serif" font-size="14.00">AppRoutingModule</text>
</g>
<!-- AppRoutingModule&#45;&gt;AppModule -->
<g id="edge16" class="edge">
<title>AppRoutingModule&#45;&gt;AppModule</title>
<path fill="none" stroke="black" d="M2718,-84.96C2718,-107.15 2718,-141.8 2718,-141.8 2718,-141.8 1403.03,-141.8 1403.03,-141.8"/>
<polygon fill="black" stroke="black" points="1403.03,-138.3 1393.03,-141.8 1403.03,-145.3 1403.03,-138.3"/>
</g>
<!-- InterceptorService -->
<g id="node19" class="node">
<title>InterceptorService</title>
<ellipse fill="#fdb462" stroke="black" cx="2888" cy="-66.8" rx="82.2" ry="18"/>
<text text-anchor="middle" x="2888" y="-62.6" font-family="Times,serif" font-size="14.00">InterceptorService</text>
</g>
<!-- InterceptorService&#45;&gt;AppModule -->
<g id="edge18" class="edge">
<title>InterceptorService&#45;&gt;AppModule</title>
<path fill="none" stroke="black" d="M2888,-85.12C2888,-108.46 2888,-145.8 2888,-145.8 2888,-145.8 1402.91,-145.8 1402.91,-145.8"/>
<polygon fill="black" stroke="black" points="1402.91,-142.3 1392.91,-145.8 1402.91,-149.3 1402.91,-142.3"/>
</g>
</g>
</svg>
