<?xml version="1.0" encoding="UTF-8" standalone="no"?>
<!DOCTYPE svg PUBLIC "-//W3C//DTD SVG 1.1//EN"
 "http://www.w3.org/Graphics/SVG/1.1/DTD/svg11.dtd">
<!-- Generated by graphviz version 5.0.0 (20220707.1540)
 -->
<!-- Title: dependencies Pages: 1 -->
<svg width="3002pt" height="247pt"
 viewBox="0.00 0.00 3002.00 246.80" xmlns="http://www.w3.org/2000/svg" xmlns:xlink="http://www.w3.org/1999/xlink">
<g id="graph0" class="graph" transform="scale(1 1) rotate(0) translate(4 242.8)">
<title>dependencies</title>
<polygon fill="white" stroke="transparent" points="-4,4 -4,-242.8 2998,-242.8 2998,4 -4,4"/>
<text text-anchor="middle" x="1497" y="-8.2" font-family="sans-serif" font-size="14.00">dependencies</text>
<g id="clust1" class="cluster">
<title>cluster_AppModule</title>
<polygon fill="none" stroke="black" stroke-dasharray="1,5" points="8,-32.8 8,-230.8 2986,-230.8 2986,-32.8 8,-32.8"/>
</g>
<g id="clust2" class="cluster">
<title>cluster_AppModule_declarations</title>
<polygon fill="none" stroke="black" points="356,-40.8 356,-92.8 2978,-92.8 2978,-40.8 356,-40.8"/>
</g>
<g id="clust18" class="cluster">
<title>cluster_AppModule_imports</title>
<polygon fill="none" stroke="black" points="204,-40.8 204,-92.8 348,-92.8 348,-40.8 204,-40.8"/>
</g>
<g id="clust20" class="cluster">
<title>cluster_AppModule_bootstrap</title>
<polygon fill="none" stroke="black" points="1305,-170.8 1305,-222.8 1429,-222.8 1429,-170.8 1305,-170.8"/>
</g>
<g id="clust21" class="cluster">
<title>cluster_AppModule_providers</title>
<polygon fill="none" stroke="black" points="16,-40.8 16,-92.8 196,-92.8 196,-40.8 16,-40.8"/>
</g>
<!-- AgregarConocimientoComponent -->
<g id="node1" class="node">
<title>AgregarConocimientoComponent</title>
<polygon fill="#ffffb3" stroke="black" points="2970.02,-84.8 2763.98,-84.8 2763.98,-48.8 2970.02,-48.8 2970.02,-84.8"/>
<text text-anchor="middle" x="2867" y="-62.6" font-family="Times,serif" font-size="14.00">AgregarConocimientoComponent</text>
</g>
<!-- AppModule -->
<g id="node16" class="node">
<title>AppModule</title>
<polygon fill="#8dd3c7" stroke="black" points="1408.66,-149.8 1405.66,-153.8 1384.66,-153.8 1381.66,-149.8 1325.34,-149.8 1325.34,-113.8 1408.66,-113.8 1408.66,-149.8"/>
<text text-anchor="middle" x="1367" y="-127.6" font-family="Times,serif" font-size="14.00">AppModule</text>
</g>
<!-- AgregarConocimientoComponent&#45;&gt;AppModule -->
<g id="edge1" class="edge">
<title>AgregarConocimientoComponent&#45;&gt;AppModule</title>
<path fill="none" stroke="black" d="M2867,-85.12C2867,-108.46 2867,-145.8 2867,-145.8 2867,-145.8 1418.68,-145.8 1418.68,-145.8"/>
<polygon fill="black" stroke="black" points="1418.68,-142.3 1408.68,-145.8 1418.68,-149.3 1418.68,-142.3"/>
</g>
<!-- AgregarEducacionComponent -->
<g id="node2" class="node">
<title>AgregarEducacionComponent</title>
<polygon fill="#ffffb3" stroke="black" points="2746.28,-84.8 2559.72,-84.8 2559.72,-48.8 2746.28,-48.8 2746.28,-84.8"/>
<text text-anchor="middle" x="2653" y="-62.6" font-family="Times,serif" font-size="14.00">AgregarEducacionComponent</text>
</g>
<!-- AgregarEducacionComponent&#45;&gt;AppModule -->
<g id="edge2" class="edge">
<title>AgregarEducacionComponent&#45;&gt;AppModule</title>
<path fill="none" stroke="black" d="M2653,-84.96C2653,-107.15 2653,-141.8 2653,-141.8 2653,-141.8 1418.69,-141.8 1418.69,-141.8"/>
<polygon fill="black" stroke="black" points="1418.69,-138.3 1408.69,-141.8 1418.69,-145.3 1418.69,-138.3"/>
</g>
<!-- AgregarExperienciaComponent -->
<g id="node3" class="node">
<title>AgregarExperienciaComponent</title>
<polygon fill="#ffffb3" stroke="black" points="2542.04,-84.8 2347.96,-84.8 2347.96,-48.8 2542.04,-48.8 2542.04,-84.8"/>
<text text-anchor="middle" x="2445" y="-62.6" font-family="Times,serif" font-size="14.00">AgregarExperienciaComponent</text>
</g>
<!-- AgregarExperienciaComponent&#45;&gt;AppModule -->
<g id="edge3" class="edge">
<title>AgregarExperienciaComponent&#45;&gt;AppModule</title>
<path fill="none" stroke="black" d="M2445,-85.08C2445,-106.12 2445,-137.8 2445,-137.8 2445,-137.8 1418.93,-137.8 1418.93,-137.8"/>
<polygon fill="black" stroke="black" points="1418.93,-134.3 1408.93,-137.8 1418.93,-141.3 1418.93,-134.3"/>
</g>
<!-- AgregarHabilidadBlandaComponent -->
<g id="node4" class="node">
<title>AgregarHabilidadBlandaComponent</title>
<polygon fill="#ffffb3" stroke="black" points="2330.06,-84.8 2107.94,-84.8 2107.94,-48.8 2330.06,-48.8 2330.06,-84.8"/>
<text text-anchor="middle" x="2219" y="-62.6" font-family="Times,serif" font-size="14.00">AgregarHabilidadBlandaComponent</text>
</g>
<!-- AgregarHabilidadBlandaComponent&#45;&gt;AppModule -->
<g id="edge4" class="edge">
<title>AgregarHabilidadBlandaComponent&#45;&gt;AppModule</title>
<path fill="none" stroke="black" d="M2219,-85.11C2219,-104.95 2219,-133.8 2219,-133.8 2219,-133.8 1418.67,-133.8 1418.67,-133.8"/>
<polygon fill="black" stroke="black" points="1418.67,-130.3 1408.67,-133.8 1418.67,-137.3 1418.67,-130.3"/>
</g>
<!-- AgregarProyectoComponent -->
<g id="node5" class="node">
<title>AgregarProyectoComponent</title>
<polygon fill="#ffffb3" stroke="black" points="2089.46,-84.8 1912.54,-84.8 1912.54,-48.8 2089.46,-48.8 2089.46,-84.8"/>
<text text-anchor="middle" x="2001" y="-62.6" font-family="Times,serif" font-size="14.00">AgregarProyectoComponent</text>
</g>
<!-- AgregarProyectoComponent&#45;&gt;AppModule -->
<g id="edge5" class="edge">
<title>AgregarProyectoComponent&#45;&gt;AppModule</title>
<path fill="none" stroke="black" d="M2001,-85.02C2001,-103.63 2001,-129.8 2001,-129.8 2001,-129.8 1419.09,-129.8 1419.09,-129.8"/>
<polygon fill="black" stroke="black" points="1419.09,-126.3 1409.09,-129.8 1419.09,-133.3 1419.09,-126.3"/>
</g>
<!-- AppComponent -->
<g id="node6" class="node">
<title>AppComponent</title>
<polygon fill="#ffffb3" stroke="black" points="1894.94,-84.8 1789.06,-84.8 1789.06,-48.8 1894.94,-48.8 1894.94,-84.8"/>
<text text-anchor="middle" x="1842" y="-62.6" font-family="Times,serif" font-size="14.00">AppComponent</text>
</g>
<!-- AppComponent&#45;&gt;AppModule -->
<g id="edge6" class="edge">
<title>AppComponent&#45;&gt;AppModule</title>
<path fill="none" stroke="black" d="M1842,-84.82C1842,-102.17 1842,-125.8 1842,-125.8 1842,-125.8 1418.74,-125.8 1418.74,-125.8"/>
<polygon fill="black" stroke="black" points="1418.74,-122.3 1408.74,-125.8 1418.74,-129.3 1418.74,-122.3"/>
</g>
<!-- ConocimientoComponent -->
<g id="node7" class="node">
<title>ConocimientoComponent</title>
<polygon fill="#ffffb3" stroke="black" points="1771.16,-84.8 1610.84,-84.8 1610.84,-48.8 1771.16,-48.8 1771.16,-84.8"/>
<text text-anchor="middle" x="1691" y="-62.6" font-family="Times,serif" font-size="14.00">ConocimientoComponent</text>
</g>
<!-- ConocimientoComponent&#45;&gt;AppModule -->
<g id="edge7" class="edge">
<title>ConocimientoComponent&#45;&gt;AppModule</title>
<path fill="none" stroke="black" d="M1691,-84.81C1691,-100.85 1691,-121.8 1691,-121.8 1691,-121.8 1418.69,-121.8 1418.69,-121.8"/>
<polygon fill="black" stroke="black" points="1418.69,-118.3 1408.69,-121.8 1418.69,-125.3 1418.69,-118.3"/>
</g>
<!-- EditInicioComponent -->
<g id="node8" class="node">
<title>EditInicioComponent</title>
<polygon fill="#ffffb3" stroke="black" points="1592.82,-84.8 1455.18,-84.8 1455.18,-48.8 1592.82,-48.8 1592.82,-84.8"/>
<text text-anchor="middle" x="1524" y="-62.6" font-family="Times,serif" font-size="14.00">EditInicioComponent</text>
</g>
<!-- EditInicioComponent&#45;&gt;AppModule -->
<g id="edge8" class="edge">
<title>EditInicioComponent&#45;&gt;AppModule</title>
<path fill="none" stroke="black" d="M1524,-84.92C1524,-99.58 1524,-117.8 1524,-117.8 1524,-117.8 1419.07,-117.8 1419.07,-117.8"/>
<polygon fill="black" stroke="black" points="1419.07,-114.3 1409.07,-117.8 1419.07,-121.3 1419.07,-114.3"/>
</g>
<!-- EducacionComponent -->
<g id="node9" class="node">
<title>EducacionComponent</title>
<polygon fill="#ffffb3" stroke="black" points="1437.41,-84.8 1296.59,-84.8 1296.59,-48.8 1437.41,-48.8 1437.41,-84.8"/>
<text text-anchor="middle" x="1367" y="-62.6" font-family="Times,serif" font-size="14.00">EducacionComponent</text>
</g>
<!-- EducacionComponent&#45;&gt;AppModule -->
<g id="edge9" class="edge">
<title>EducacionComponent&#45;&gt;AppModule</title>
<path fill="none" stroke="black" d="M1367,-84.91C1367,-84.91 1367,-103.79 1367,-103.79"/>
<polygon fill="black" stroke="black" points="1363.5,-103.79 1367,-113.79 1370.5,-103.79 1363.5,-103.79"/>
</g>
<!-- ExperienciaComponent -->
<g id="node10" class="node">
<title>ExperienciaComponent</title>
<polygon fill="#ffffb3" stroke="black" points="1279.18,-84.8 1130.82,-84.8 1130.82,-48.8 1279.18,-48.8 1279.18,-84.8"/>
<text text-anchor="middle" x="1205" y="-62.6" font-family="Times,serif" font-size="14.00">ExperienciaComponent</text>
</g>
<!-- ExperienciaComponent&#45;&gt;AppModule -->
<g id="edge10" class="edge">
<title>ExperienciaComponent&#45;&gt;AppModule</title>
<path fill="none" stroke="black" d="M1205,-84.92C1205,-99.58 1205,-117.8 1205,-117.8 1205,-117.8 1315.28,-117.8 1315.28,-117.8"/>
<polygon fill="black" stroke="black" points="1315.28,-121.3 1325.28,-117.8 1315.28,-114.3 1315.28,-121.3"/>
</g>
<!-- HabilidadesBlandasComponent -->
<g id="node11" class="node">
<title>HabilidadesBlandasComponent</title>
<polygon fill="#ffffb3" stroke="black" points="1112.8,-84.8 919.2,-84.8 919.2,-48.8 1112.8,-48.8 1112.8,-84.8"/>
<text text-anchor="middle" x="1016" y="-62.6" font-family="Times,serif" font-size="14.00">HabilidadesBlandasComponent</text>
</g>
<!-- HabilidadesBlandasComponent&#45;&gt;AppModule -->
<g id="edge11" class="edge">
<title>HabilidadesBlandasComponent&#45;&gt;AppModule</title>
<path fill="none" stroke="black" d="M1016,-84.81C1016,-100.85 1016,-121.8 1016,-121.8 1016,-121.8 1315.01,-121.8 1315.01,-121.8"/>
<polygon fill="black" stroke="black" points="1315.01,-125.3 1325.01,-121.8 1315.01,-118.3 1315.01,-125.3"/>
</g>
<!-- InicioComponent -->
<g id="node12" class="node">
<title>InicioComponent</title>
<polygon fill="#ffffb3" stroke="black" points="900.99,-84.8 787.01,-84.8 787.01,-48.8 900.99,-48.8 900.99,-84.8"/>
<text text-anchor="middle" x="844" y="-62.6" font-family="Times,serif" font-size="14.00">InicioComponent</text>
</g>
<!-- InicioComponent&#45;&gt;AppModule -->
<g id="edge12" class="edge">
<title>InicioComponent&#45;&gt;AppModule</title>
<path fill="none" stroke="black" d="M844,-84.82C844,-102.17 844,-125.8 844,-125.8 844,-125.8 1315.08,-125.8 1315.08,-125.8"/>
<polygon fill="black" stroke="black" points="1315.08,-129.3 1325.08,-125.8 1315.08,-122.3 1315.08,-129.3"/>
</g>
<!-- LoginComponent -->
<g id="node13" class="node">
<title>LoginComponent</title>
<polygon fill="#ffffb3" stroke="black" points="769.27,-84.8 654.73,-84.8 654.73,-48.8 769.27,-48.8 769.27,-84.8"/>
<text text-anchor="middle" x="712" y="-62.6" font-family="Times,serif" font-size="14.00">LoginComponent</text>
</g>
<!-- LoginComponent&#45;&gt;AppModule -->
<g id="edge13" class="edge">
<title>LoginComponent&#45;&gt;AppModule</title>
<path fill="none" stroke="black" d="M712,-85.02C712,-103.63 712,-129.8 712,-129.8 712,-129.8 1315.03,-129.8 1315.03,-129.8"/>
<polygon fill="black" stroke="black" points="1315.03,-133.3 1325.03,-129.8 1315.03,-126.3 1315.03,-133.3"/>
</g>
<!-- NavbarComponent -->
<g id="node14" class="node">
<title>NavbarComponent</title>
<polygon fill="#ffffb3" stroke="black" points="636.03,-84.8 513.97,-84.8 513.97,-48.8 636.03,-48.8 636.03,-84.8"/>
<text text-anchor="middle" x="575" y="-62.6" font-family="Times,serif" font-size="14.00">NavbarComponent</text>
</g>
<!-- NavbarComponent&#45;&gt;AppModule -->
<g id="edge14" class="edge">
<title>NavbarComponent&#45;&gt;AppModule</title>
<path fill="none" stroke="black" d="M575,-85.11C575,-104.95 575,-133.8 575,-133.8 575,-133.8 1315.26,-133.8 1315.26,-133.8"/>
<polygon fill="black" stroke="black" points="1315.26,-137.3 1325.26,-133.8 1315.26,-130.3 1315.26,-137.3"/>
</g>
<!-- ProyectoComponent -->
<g id="node15" class="node">
<title>ProyectoComponent</title>
<polygon fill="#ffffb3" stroke="black" points="495.6,-84.8 364.4,-84.8 364.4,-48.8 495.6,-48.8 495.6,-84.8"/>
<text text-anchor="middle" x="430" y="-62.6" font-family="Times,serif" font-size="14.00">ProyectoComponent</text>
</g>
<!-- ProyectoComponent&#45;&gt;AppModule -->
<g id="edge15" class="edge">
<title>ProyectoComponent&#45;&gt;AppModule</title>
<path fill="none" stroke="black" d="M430,-85.08C430,-106.12 430,-137.8 430,-137.8 430,-137.8 1315.22,-137.8 1315.22,-137.8"/>
<polygon fill="black" stroke="black" points="1315.22,-141.3 1325.22,-137.8 1315.22,-134.3 1315.22,-141.3"/>
</g>
<!-- AppComponent  -->
<g id="node18" class="node">
<title>AppComponent </title>
<polygon fill="#80b1d3" stroke="black" points="1421.44,-214.8 1312.56,-214.8 1312.56,-178.8 1421.44,-178.8 1421.44,-214.8"/>
<text text-anchor="middle" x="1367" y="-192.6" font-family="Times,serif" font-size="14.00">AppComponent </text>
</g>
<!-- AppModule&#45;&gt;AppComponent  -->
<g id="edge17" class="edge">
<title>AppModule&#45;&gt;AppComponent </title>
<path fill="none" stroke="black" stroke-dasharray="1,5" d="M1367,-149.91C1367,-149.91 1367,-168.79 1367,-168.79"/>
<polygon fill="black" stroke="black" points="1363.5,-168.79 1367,-178.79 1370.5,-168.79 1363.5,-168.79"/>
</g>
<!-- AppRoutingModule -->
<g id="node17" class="node">
<title>AppRoutingModule</title>
<polygon fill="#8dd3c7" stroke="black" points="340.28,-84.8 337.28,-88.8 316.28,-88.8 313.28,-84.8 211.72,-84.8 211.72,-48.8 340.28,-48.8 340.28,-84.8"/>
<text text-anchor="middle" x="276" y="-62.6" font-family="Times,serif" font-size="14.00">AppRoutingModule</text>
</g>
<!-- AppRoutingModule&#45;&gt;AppModule -->
<g id="edge16" class="edge">
<title>AppRoutingModule&#45;&gt;AppModule</title>
<path fill="none" stroke="black" d="M276,-84.96C276,-107.15 276,-141.8 276,-141.8 276,-141.8 1315.23,-141.8 1315.23,-141.8"/>
<polygon fill="black" stroke="black" points="1315.23,-145.3 1325.23,-141.8 1315.23,-138.3 1315.23,-145.3"/>
</g>
<!-- InterceptorService -->
<g id="node19" class="node">
<title>InterceptorService</title>
<ellipse fill="#fdb462" stroke="black" cx="106" cy="-66.8" rx="82.2" ry="18"/>
<text text-anchor="middle" x="106" y="-62.6" font-family="Times,serif" font-size="14.00">InterceptorService</text>
</g>
<!-- InterceptorService&#45;&gt;AppModule -->
<g id="edge18" class="edge">
<title>InterceptorService&#45;&gt;AppModule</title>
<path fill="none" stroke="black" d="M106,-85.12C106,-108.46 106,-145.8 106,-145.8 106,-145.8 1315.04,-145.8 1315.04,-145.8"/>
<polygon fill="black" stroke="black" points="1315.04,-149.3 1325.04,-145.8 1315.04,-142.3 1315.04,-149.3"/>
</g>
</g>
</svg>
